<svg xmlns="http://www.w3.org/2000/svg" version="1.1" xmlns:xlink="http://www.w3.org/1999/xlink" xmlns:svgjs="http://svgjs.dev/svgjs" width="1000" height="1000" viewBox="0 0 1000 1000"><rect width="1000" height="1000" fill="#000000"></rect><g transform="matrix(0.7,0,0,0.7,149.57575757575756,282.1265587044535)"><svg viewBox="0 0 396 247" data-background-color="#ffffff" preserveAspectRatio="xMidYMid meet" height="623" width="1000" xmlns="http://www.w3.org/2000/svg" xmlns:xlink="http://www.w3.org/1999/xlink"><g id="tight-bounds" transform="matrix(1,0,0,1,0.2400000000000091,-0.09999999999999432)"><svg viewBox="0 0 395.52 247.2" height="247.2" width="395.52"><g><svg></svg></g><g><svg viewBox="0 0 395.52 247.2" height="247.2" width="395.52"><g transform="matrix(1,0,0,1,75.54432,95.98219845524164)"><svg viewBox="0 0 244.43135999999998 55.2356030895167" height="55.2356030895167" width="244.43135999999998"><g><svg viewBox="0 0 332.3788041070545 75.10960827213614" height="55.2356030895167" width="244.43135999999998"><g transform="matrix(1,0,0,1,0,10.38056091170623)"><svg viewBox="0 0 244.43135999999998 54.34848644872368" height="54.34848644872368" width="244.43135999999998"><g><svg viewBox="0 0 244.43135999999998 54.34848644872368" height="54.34848644872368" width="244.43135999999998"><g><svg viewBox="0 0 244.43135999999998 54.34848644872368" height="54.34848644872368" width="244.43135999999998"><g transform="matrix(1,0,0,1,0,0)"><svg width="244.43135999999998" viewBox="2.85 -38.75 223.48 49.65" height="54.34848644872368" data-palette-color="#87ceeb"><g class="undefined-text-0" data-fill-palette-color="primary" id="text-0"><path d="M13.6-3Q13.2-1.25 12.38-0.3 11.55 0.65 9.7 0.65L9.7 0.65Q8.15 0.65 7.43 0.13 6.7-0.4 6.7-1.65L6.7-1.65Q6.7-2.2 6.85-2.7L6.85-2.7 12.95-26.9Q12.9-26.9 9.7-26.55L9.7-26.55Q5.85-26.25 4.9-26.05L4.9-26.05Q3.9-26.4 3.38-27.13 2.85-27.85 2.85-28.85L2.85-28.85Q2.85-29.65 3.43-30.38 4-31.1 4.8-31.45L4.8-31.45Q7.3-31.95 11.8-32.3 16.3-32.65 23.35-33.05L23.35-33.05Q26.95-33.2 28.2-33.35L28.2-33.35Q29-33 29.58-32.27 30.15-31.55 30.15-30.75L30.15-30.75Q30.15-29.85 29.25-29 28.35-28.15 27.2-27.8L27.2-27.8 18.45-27.35Q19-27.15 19-26L19-26Q19-25.4 18.9-25.1L18.9-25.1Q18.05-21.3 16.57-15.25 15.1-9.2 14.6-7.05L14.6-7.05Q14.3-5.8 14.05-4.8 13.8-3.8 13.6-3L13.6-3ZM47.9-2.6Q48-1.3 48.25-0.25L48.25-0.25Q48.15 0.05 47.37 0.35 46.6 0.65 46.05 0.65L46.05 0.65Q44.25 0.65 43.47 0.13 42.7-0.4 42.7-1.45L42.7-1.45Q42.7-2.45 42.9-3.45L42.9-3.45Q41.8-1.95 39.67-0.98 37.55 0 36.25 0L36.25 0Q32.9 0 30.67-1.95 28.45-3.9 28.45-8.2L28.45-8.2Q28.45-12.25 30.37-15.83 32.3-19.4 35.7-21.58 39.1-23.75 43.25-23.75L43.25-23.75Q44.05-23.75 45.35-23.33 46.65-22.9 47.97-21.88 49.3-20.85 50.2-19.25L50.2-19.25Q50.6-19.25 51.15-18.85 51.7-18.45 51.7-18.05L51.7-18.05Q51.7-17.6 51.55-17.15L51.55-17.15 47.9-2.6ZM45.65-16.6Q45.35-17.7 44.47-18.45 43.6-19.2 42.9-19.2L42.9-19.2Q40.6-19.2 38.57-17.57 36.55-15.95 35.3-13.55 34.05-11.15 34.05-9L34.05-9Q34.05-6.9 34.55-5.55 35.05-4.2 36.5-4.2L36.5-4.2Q37.75-4.2 39.37-4.95 41-5.7 42.27-6.98 43.55-8.25 43.95-9.65L43.95-9.65 45.65-16.6ZM68.05-35.85L65.95-27.2Q60.3-3.45 59.3-0.05L59.3-0.05Q59.2 0.25 58.27 0.73 57.35 1.2 57 1.2L57 1.2Q55.6 1.2 54.3 0.5 53-0.2 52.9-1.75L52.9-1.75Q52.95-1.85 53.4-2.8 53.85-3.75 54.3-5.5L54.3-5.5Q55.45-9.8 56.92-15.7 58.4-21.6 58.9-23.6L58.9-23.6 61.25-33.15Q61.2-33.55 61.2-37.3L61.2-37.3Q61.35-37.95 62.32-38.35 63.3-38.75 64.09-38.75L64.09-38.75Q65.34-38.75 66.67-37.9 68-37.05 68.05-35.85L68.05-35.85ZM93.04-22.4Q93.24-22.1 93.57-21.28 93.89-20.45 93.89-20L93.89-20Q93.89-19.75 93.84-19.7L93.84-19.7Q93.59-19.4 92.69-19.2 91.79-19 91.49-18.95L91.49-18.95Q89.94-17.95 86.57-15.78 83.19-13.6 81.64-12.6L81.64-12.6Q81.74-11.4 83.44-8.93 85.14-6.45 87.09-4.25 89.04-2.05 89.44-2.05L89.44-2.05Q89.89-2.05 90.57-1.3 91.24-0.55 91.24 0.05L91.24 0.05Q91.24 0.6 90.54 0.75L90.54 0.75Q90.09 0.85 88.87 1.1 87.64 1.35 86.74 1.35L86.74 1.35Q85.94 1.35 85.49 1.15L85.49 1.15Q84.34 0.75 82.37-1.53 80.39-3.8 78.59-6.63 76.79-9.45 76.24-11.5L76.24-11.5Q74.64-5.05 73.99-2.68 73.34-0.3 72.94 0.43 72.54 1.15 71.99 1.15L71.99 1.15 70.59 1.2Q67.29 1.2 67.14-1.45L67.14-1.45Q68.14-3.9 68.54-5.5L68.54-5.5Q73.49-23.85 75.59-33.15L75.59-33.15Q75.54-33.9 75.49-35.23 75.44-36.55 75.44-37.3L75.44-37.3Q75.59-37.95 76.57-38.35 77.54-38.75 78.34-38.75L78.34-38.75Q79.59-38.75 80.99-37.9 82.39-37.05 82.44-35.85L82.44-35.85 77.99-18.4 77.14-14.95Q78.19-16.25 80.72-18.15 83.24-20.05 85.92-21.55 88.59-23.05 90.19-23.35L90.19-23.35Q90.59-23.35 91.67-23.1 92.74-22.85 93.04-22.4L93.04-22.4Z" fill="#ffffff" data-fill-palette-color="primary"></path><path d="M118.24-26.35Q117.99-27.15 116.32-27.78 114.64-28.4 111.94-28.4L111.94-28.4Q108.99-28.4 107.34-26.75 105.69-25.1 105.69-22.6L105.69-22.6Q105.69-21.05 106.82-20.23 107.94-19.4 110.29-18.4L110.29-18.4 112.09-17.65 113.59-16.95Q116.29-15.75 117.87-14.78 119.44-13.8 120.54-12.1 121.64-10.4 121.64-7.75L121.64-7.75Q121.64-4.9 119.77-2.83 117.89-0.75 114.54 0.33 111.19 1.4 106.74 1.4L106.74 1.4Q103.44 1.4 100.57 0.38 97.69-0.65 96.02-2.2 94.34-3.75 94.34-5.25L94.34-5.25Q94.34-6.7 95.59-7.63 96.84-8.55 99.14-8.9L99.14-8.9Q99.39-7.45 100.84-6.3 102.29-5.15 104.22-4.48 106.14-3.8 107.59-3.8L107.59-3.8Q110.24-3.8 112.32-4.85 114.39-5.9 114.39-7.75L114.39-7.75Q114.39-9.3 112.92-10.33 111.44-11.35 108.49-12.55L108.49-12.55 105.84-13.75Q102.59-15.35 100.69-17.35 98.79-19.35 98.79-22.65L98.79-22.65Q98.79-26.3 100.84-28.58 102.89-30.85 105.82-31.85 108.74-32.85 111.54-32.85L111.54-32.85Q115.99-32.85 118.87-31.7 121.74-30.55 123.04-28.8 124.34-27.05 124.34-25.2L124.34-25.2Q124.34-24.15 123.82-22.65 123.29-21.15 122.27-20.05 121.24-18.95 119.79-18.95L119.79-18.95Q117.29-18.95 117.29-21.55L117.29-21.55Q117.39-22.35 117.74-24.18 118.09-26 118.24-26.35L118.24-26.35ZM131.84-2.2Q131.79-1.9 130.51 3.28 129.24 8.45 128.74 9.8L128.74 9.8Q128.54 10.35 127.54 10.63 126.54 10.9 126.09 10.9L126.09 10.9Q124.99 10.9 124.26 10.2 123.54 9.5 123.49 8.1L123.49 8.1 126.99-6.25Q128.99-14.1 130.29-19.65L130.29-19.65Q130.29-19.95 129.94-21.25L129.94-21.25Q129.79-22.05 129.64-22.75 129.49-23.45 129.44-23.8L129.44-23.8Q129.54-24.45 130.46-24.85 131.39-25.25 132.19-25.25L132.19-25.25Q133.39-25.25 134.56-24.4 135.74-23.55 135.89-22.35L135.89-22.35 135.74-21.05Q137.99-23.85 141.49-23.85L141.49-23.85Q144.34-23.85 146.41-22.48 148.49-21.1 149.59-18.78 150.69-16.45 150.69-13.65L150.69-13.65Q150.69-9.9 149.24-6.6 147.79-3.3 144.89-1.28 141.99 0.75 137.89 0.75L137.89 0.75Q136.59 0.75 134.54-0.13 132.49-1 131.84-2.2L131.84-2.2ZM133.39-8.55Q133.29-7.95 133.29-7.7L133.29-7.7Q133.34-6.45 134.11-5.5 134.89-4.55 135.94-4.03 136.99-3.5 137.69-3.5L137.69-3.5Q139.89-3.5 141.56-5.18 143.24-6.85 144.14-9.33 145.04-11.8 145.04-14.05L145.04-14.05Q145.04-16.15 143.91-17.78 142.79-19.4 141.09-19.4L141.09-19.4Q139.19-19.4 137.96-18.57 136.74-17.75 135.19-16.05L135.19-16.05 133.39-8.55ZM171.79-2.6Q171.89-1.3 172.14-0.25L172.14-0.25Q172.04 0.05 171.26 0.35 170.48 0.65 169.94 0.65L169.94 0.65Q168.14 0.65 167.36 0.13 166.59-0.4 166.59-1.45L166.59-1.45Q166.59-2.45 166.79-3.45L166.79-3.45Q165.69-1.95 163.56-0.98 161.44 0 160.14 0L160.14 0Q156.79 0 154.56-1.95 152.34-3.9 152.34-8.2L152.34-8.2Q152.34-12.25 154.26-15.83 156.19-19.4 159.59-21.58 162.98-23.75 167.14-23.75L167.14-23.75Q167.94-23.75 169.23-23.33 170.54-22.9 171.86-21.88 173.19-20.85 174.09-19.25L174.09-19.25Q174.48-19.25 175.04-18.85 175.59-18.45 175.59-18.05L175.59-18.05Q175.59-17.6 175.44-17.15L175.44-17.15 171.79-2.6ZM169.54-16.6Q169.23-17.7 168.36-18.45 167.48-19.2 166.79-19.2L166.79-19.2Q164.48-19.2 162.46-17.57 160.44-15.95 159.19-13.55 157.94-11.15 157.94-9L157.94-9Q157.94-6.9 158.44-5.55 158.94-4.2 160.39-4.2L160.39-4.2Q161.64-4.2 163.26-4.95 164.89-5.7 166.16-6.98 167.44-8.25 167.84-9.65L167.84-9.65 169.54-16.6ZM199.58-5.9Q198.98-4.3 197.23-2.68 195.48-1.05 192.78 0 190.08 1.05 186.88 1.05L186.88 1.05Q181.98 1.05 179.63-0.98 177.28-3 177.28-6.25L177.28-6.25Q177.28-10.95 179.68-14.98 182.08-19 186.13-21.35 190.18-23.7 194.78-23.7L194.78-23.7Q197.63-23.7 199.51-22.03 201.38-20.35 201.38-17.5L201.38-17.5Q201.38-16.4 200.48-15.68 199.58-14.95 198.08-14.95L198.08-14.95Q196.88-14.95 196.46-15.5 196.03-16.05 196.03-16.95L196.03-16.95 196.08-18.1Q196.08-18.7 195.43-19.07 194.78-19.45 194.03-19.45L194.03-19.45Q192.48-19.45 189.86-17.6 187.23-15.75 185.26-12.73 183.28-9.7 183.28-6.25L183.28-6.25Q183.28-4.85 184.38-4.1 185.48-3.35 187.63-3.35L187.63-3.35Q188.98-3.35 190.73-3.9 192.48-4.45 192.93-5.3L192.93-5.3Q194.63-8.4 196.03-8.4L196.03-8.4Q198.08-8.4 198.81-7.63 199.53-6.85 199.58-5.9L199.58-5.9ZM211.83 1.05Q206.93 1.05 204.68-0.9 202.43-2.85 202.43-6.1L202.43-6.1Q202.43-10.85 204.81-14.9 207.18-18.95 211.16-21.33 215.13-23.7 219.73-23.7L219.73-23.7Q222.53-23.7 224.43-22.13 226.33-20.55 226.33-17.5L226.33-17.5Q226.33-15.75 225.21-14.63 224.08-13.5 221.98-12.63 219.88-11.75 215.18-10.15L215.18-10.15Q210.93-8.75 208.28-7.8L208.28-7.8Q208.08-7.05 208.08-6.25L208.08-6.25Q208.08-4.85 209.26-4.1 210.43-3.35 212.58-3.35L212.58-3.35Q213.93-3.35 215.68-3.9 217.43-4.45 217.88-5.3L217.88-5.3Q219.58-8.4 220.98-8.4L220.98-8.4Q223.03-8.4 223.76-7.63 224.48-6.85 224.53-5.9L224.53-5.9Q223.93-4.3 222.18-2.68 220.43-1.05 217.73 0 215.03 1.05 211.83 1.05L211.83 1.05ZM209.68-12.4Q214.63-14 217.83-15.38 221.03-16.75 221.03-18.1L221.03-18.1Q221.03-18.7 220.38-19.07 219.73-19.45 218.98-19.45L218.98-19.45Q217.48-19.45 215.56-18.3 213.63-17.15 211.98-15.5 210.33-13.85 209.68-12.4L209.68-12.4Z" fill="#ffffff" data-fill-palette-color="accent"></path></g></svg></g></svg></g></svg></g></svg></g><g transform="matrix(1,0,0,1,257.2617332868689,0)"><svg viewBox="0 0 75.11707082018562 75.10960827213614" height="75.10960827213614" width="75.11707082018562"><g><svg xmlns="http://www.w3.org/2000/svg" xmlns:xlink="http://www.w3.org/1999/xlink" version="1.1" x="0" y="0" viewBox="0.05348532017421759 0.0006567927086351122 100.0089389266212 99.99900348180195" enable-background="new 0 0 100 100" xml:space="preserve" width="75.11707082018562" height="75.10960827213614" class="icon-icon-0" data-fill-palette-color="accent" id="icon-0"><g fill="#c4933a" data-fill-palette-color="accent"><path d="M27.159 78.945c7.414-3.59 18.067-11.203 29.313-22.434 8.445-8.435 15.599-17.303 20.143-24.972 1.022-1.727 1.821-3.247 2.458-4.595C72.288 18.454 61.855 13 50.167 13c-20.402 0-37 16.598-37 37C13.167 61.711 18.642 72.16 27.159 78.945z" fill="#ffffff" data-fill-palette-color="accent"></path><path d="M50.543 86.99c20.107-0.202 36.42-16.52 36.614-36.63-4.851 6.591-10.606 13.281-17.084 19.75C63.677 76.499 57.063 82.185 50.543 86.99z" fill="#ffffff" data-fill-palette-color="accent"></path><path d="M96.963 3.096c-6.135-6.127-20.19-2.853-36.331 7.128 4.798 1.168 9.25 3.151 13.203 5.914 4.457-1.828 8.616-1.82 10.253-0.185 2.379 2.375 1.308 7.779-2.37 14.75-0.01-0.016-0.019-0.033-0.028-0.048-4.305 8.177-12.211 18.521-22.391 28.688C49.24 69.388 39.006 77.218 30.863 81.552c0.009 0.005 0.018 0.01 0.026 0.016-7.085 3.766-12.582 4.88-14.985 2.479-1.888-1.885-1.61-5.684 0.533-10.845-2.77-3.974-4.759-8.419-5.916-13.192C0.476 76.178-3.015 90.867 3.031 96.905c9.555 9.542 38.331-3.721 64.269-29.625C93.238 41.377 106.519 12.638 96.963 3.096z" fill="#ffffff" data-fill-palette-color="accent"></path></g></svg></g></svg></g></svg></g></svg></g><path d="M198.882 89.982L198.882 27.647 390.789 27.647 390.789 219.553 198.882 219.553 198.882 157.218 202.486 157.218 202.486 215.949 387.184 215.949 387.184 31.251 202.486 31.251 202.486 89.982Z" fill="#ffffff" stroke="transparent" data-fill-palette-color="primary"></path></svg></g><defs></defs></svg><rect width="395.52" height="247.2" fill="none" stroke="none" visibility="hidden"></rect></g></svg></g></svg>